<?xml version="1.0" standalone="no"?>
<!DOCTYPE svg PUBLIC "-//W3C//DTD SVG 20010904//EN"
 "http://www.w3.org/TR/2001/REC-SVG-20010904/DTD/svg10.dtd">
<svg version="1.0" xmlns="http://www.w3.org/2000/svg"
 width="500.000000pt" height="500.000000pt" viewBox="0 0 500.000000 500.000000"
 preserveAspectRatio="xMidYMid meet">

<g transform="translate(0.000000,500.000000) scale(0.100000,-0.100000)"
fill="#000000" stroke="none">
<path d="M0 2500 l0 -2500 2500 0 2500 0 0 2500 0 2500 -2500 0 -2500 0 0
-2500z m2755 630 c3 -5 -33 -110 -80 -232 -47 -123 -156 -406 -242 -630 -122
-319 -160 -408 -174 -408 -9 0 -19 6 -22 13 -2 6 31 104 75 217 43 113 110
286 147 385 167 437 241 627 251 645 11 21 35 26 45 10z m-560 -245 c0 -13
-71 -75 -225 -197 -124 -98 -226 -182 -228 -186 -1 -5 101 -90 228 -191 126
-100 230 -189 230 -197 0 -8 -7 -17 -15 -20 -20 -8 -510 382 -510 406 0 21
482 410 505 407 8 -1 15 -11 15 -22z m891 -178 c161 -127 243 -198 241 -208
-3 -24 -495 -412 -513 -405 -8 3 -14 12 -14 20 0 8 104 97 230 198 127 100
229 186 228 190 -2 3 -105 88 -230 188 -126 99 -228 186 -228 194 0 18 12 27
28 21 8 -3 124 -92 258 -198z"/>
</g>
</svg>
